<mxfile host="app.diagrams.net" modified="2022-05-19T06:58:37.460Z" agent="5.0 (Macintosh; Intel Mac OS X 10_15_7) AppleWebKit/605.1.15 (KHTML, like Gecko) Version/15.4 Safari/605.1.15" etag="Zb0tpSDv5wcyGY7egRNA" version="18.0.7" type="github">
  <diagram id="A_rNe0tQCXwfyw3JxFfG" name="Page-1">
    <mxGraphModel dx="830" dy="620" grid="1" gridSize="10" guides="1" tooltips="1" connect="1" arrows="1" fold="1" page="1" pageScale="1" pageWidth="827" pageHeight="1169" math="0" shadow="0">
      <root>
        <mxCell id="0" />
        <mxCell id="1" parent="0" />
        <mxCell id="x3nWLXFqhXbbvrtJv1Lh-1" value="&lt;b&gt;基幹システムリプレイス&lt;/b&gt;" style="fillColor=#F6F6F6;strokeColor=none;shadow=0;gradientColor=none;fontSize=14;align=left;spacing=10;fontColor=#717171;9E9E9E;verticalAlign=top;spacingTop=-4;fontStyle=0;spacingLeft=0;html=1;" vertex="1" parent="1">
          <mxGeometry x="230" y="100" width="490" height="300" as="geometry" />
        </mxCell>
        <mxCell id="x3nWLXFqhXbbvrtJv1Lh-2" style="edgeStyle=orthogonalEdgeStyle;rounded=0;html=1;labelBackgroundColor=none;startFill=1;startSize=4;endArrow=blockThin;endFill=1;endSize=4;jettySize=auto;orthogonalLoop=1;strokeColor=#4284F3;strokeWidth=2;fontSize=12;fontColor=#000000;align=center;dashed=0;exitX=1;exitY=0.5;exitDx=0;exitDy=0;" edge="1" parent="1" source="x3nWLXFqhXbbvrtJv1Lh-4" target="x3nWLXFqhXbbvrtJv1Lh-7">
          <mxGeometry relative="1" as="geometry">
            <mxPoint x="329.85" y="252.5" as="sourcePoint" />
            <mxPoint x="329.85" y="300" as="targetPoint" />
          </mxGeometry>
        </mxCell>
        <mxCell id="x3nWLXFqhXbbvrtJv1Lh-3" value="" style="group;spacingLeft=0;" vertex="1" connectable="0" parent="1">
          <mxGeometry x="247" y="240" width="160" height="60" as="geometry" />
        </mxCell>
        <mxCell id="x3nWLXFqhXbbvrtJv1Lh-4" value="" style="strokeColor=#dddddd;fillColor=#ffffff;shadow=1;strokeWidth=1;rounded=1;absoluteArcSize=1;arcSize=2;fontSize=10;fontColor=#9E9E9E;align=center;html=1;container=0;" vertex="1" parent="x3nWLXFqhXbbvrtJv1Lh-3">
          <mxGeometry width="160" height="60" as="geometry" />
        </mxCell>
        <mxCell id="x3nWLXFqhXbbvrtJv1Lh-5" value="申込・契約API&lt;br&gt;(Nest.js)" style="outlineConnect=0;dashed=0;verticalLabelPosition=middle;verticalAlign=top;align=left;html=1;shape=mxgraph.aws3.android;fillColor=#8CC64F;gradientColor=none;labelPosition=right;spacingLeft=5;" vertex="1" parent="x3nWLXFqhXbbvrtJv1Lh-3">
          <mxGeometry x="10" y="10" width="35" height="40" as="geometry" />
        </mxCell>
        <mxCell id="x3nWLXFqhXbbvrtJv1Lh-6" value="" style="group" vertex="1" connectable="0" parent="1">
          <mxGeometry x="446" y="240" width="160" height="60" as="geometry" />
        </mxCell>
        <mxCell id="x3nWLXFqhXbbvrtJv1Lh-7" value="" style="strokeColor=#dddddd;fillColor=#ffffff;shadow=1;strokeWidth=1;rounded=1;absoluteArcSize=1;arcSize=2;fontSize=10;fontColor=#9E9E9E;align=center;html=1;container=0;" vertex="1" parent="x3nWLXFqhXbbvrtJv1Lh-6">
          <mxGeometry width="160" height="60" as="geometry" />
        </mxCell>
        <mxCell id="x3nWLXFqhXbbvrtJv1Lh-8" value="組織情報サービス&lt;br&gt;(Nest.js)" style="outlineConnect=0;dashed=0;verticalLabelPosition=middle;verticalAlign=top;align=left;html=1;shape=mxgraph.aws3.android;fillColor=#8CC64F;gradientColor=none;labelPosition=right;spacingLeft=5;" vertex="1" parent="x3nWLXFqhXbbvrtJv1Lh-6">
          <mxGeometry x="10" y="10" width="35" height="40" as="geometry" />
        </mxCell>
        <mxCell id="x3nWLXFqhXbbvrtJv1Lh-9" value="" style="group" vertex="1" connectable="0" parent="1">
          <mxGeometry x="446" y="320" width="160" height="60" as="geometry" />
        </mxCell>
        <mxCell id="x3nWLXFqhXbbvrtJv1Lh-10" value="" style="strokeColor=#dddddd;fillColor=#ffffff;shadow=1;strokeWidth=1;rounded=1;absoluteArcSize=1;arcSize=2;fontSize=10;fontColor=#9E9E9E;align=center;html=1;container=0;" vertex="1" parent="x3nWLXFqhXbbvrtJv1Lh-9">
          <mxGeometry width="160" height="60" as="geometry" />
        </mxCell>
        <mxCell id="x3nWLXFqhXbbvrtJv1Lh-11" value="連携サービス&#xa;(Go)" style="shape=image;verticalLabelPosition=middle;verticalAlign=middle;imageAspect=0;aspect=fixed;image=data:image/png,iVBORw0KGgoAAAANSUhEUgAABCUAAAOqCAYAAACrSe8RAAAACXBIWXMAAC4jAAAuIwF4pT92AAAgAElEQVR4nOzdT3JbR7YnYNwKz+VegVQTTKVagfhmPROxAtErML0C0+MemFqBqRWAGvTY5ApKjJ5h8sgVtLiBRse1EyqYligAvPee/PN9EQz1q/c6CsgLJhO/PHmyW6/XMwAAAICp/cOIAwAAABGEEgAAAEAIoQQAAAAQQigBAAAAhBBKAAAAACGEEgAAAEAIoQQAAAAQQigBAAAAhBBKAAAAACGEEgAAAEAIoQQAAAAQQigBAAAAhBBKAAAAACGEEgAAAEAIoQQAAAAQQigBAAAAhBBKAAAAACGEEgAAAEAIoQQAAAAQQigBAAAAhBBKAAAAACGEEgAAAEAIoQQAAAAQQigBAAAAhBBKAAAAACGEEgAAAEAIoQQAAAAQQigBAAAAhBBKAAAAACGEEgAAAEAIoQQAAAAQQigBAAAAhBBKAAAAACGEEgAAAEAIoQQAAAAQQigBAAAAhBBKAAAAACGEEgAAAEAIoQQAAAAQQigBAAAAhBBKAAAAACGEEgAAAEAIoQQAAAAQQigBAAAAhBBKAAAAACGEEgAAAEAIoQQAAAAQQigBAAAAhBBKAAAAACGEEgAAAEAIoQQAAAAQQigBAAAAhBBKAAAAACGEEgAAAEAIoQQAAAAQQigBAAAAhBBKAAAAACGEEgAAAEAIoQQAAAAQQigBAAAAhBBKAAAAACGEEgAAAEAIoQQAAAAQQigBAAAAhBBKAAAAACGEEgAAAEAIoQQAAAAQQigBAAAAhBBKAAAAACGEEgAAAEAIoQQAAAAQQigBAAAAhBBKAAAAACGEEgAAAEAIoQQAAAAQQigBAAAAhBBKAAAAACGEEgAAAEAIoQQAAAAQQigBAAAAhBBKAAAAACGEEgAAAEAIoQQAAAAQQigBAAAAhBBKAAAAACGEEgAAAEAIoQQAAAAQQigBAAAAhBBKAAAAACGEEgAAAEAIoQQAAAAQQigBAAAAhBBKAAAAACGEEgAAAEAIoQQAAAAQQigBAAAAhBBKAAAAACGEEgAAAEAIoQQAAAAQQigBAAAAhBBKAAAAACGEEgAAAEAIoQQAAAAQQigBAAAAhBBKAAAAACGEEgAAAEAIoQQAAAAQQigBAAAAhBBKAAAAACGEEgAAAEAIoQQAAAAQQigBAAAAhBBKAAAAACGEEgAAAEAIoQQAAAAQQigBAAAAhBBKAAAAACGEEgAAAEAIoQQAAAAQQigBAAAAhBBKAAAAACGEEgAAAEAIoQQAAAAQQigBAAAAhBBKAAAAACGEEgAAAEAIoQQAAAAQQigBAAAAhBBKAAAAACGEEgAAAEAIoQQAAAAQQigBAAAAhBBKAAAAACGEEgAAAEAIoQQAAAAQQigBAAAAhBBKAAAAACGEEgAAAEAIoQQAAAAQQigBAAAAhBBKAAAAACGEEgAAAEAIoQQAAAAQQigBAAAAhBBKAAAAACGEEgAAAEAIoQQAAAAQQigBAAAAhBBKAAAAACGEEgAAAEAIoQQAAAAQQigBAAAAhBBKAAAAACGEEgAAAEAIoQQAAAAQQigBAAAAhBBKAAAAACGEEgAAAEAIoQQAAAAQQigBAAAAhBBKAAAAACGEEgAAAEAIoQQAAAAQQigBAAAAhBBKAAAAACGEEgAAAEAIoQQAAAAQQigBAAAAhBBKAAAAACGEEgAAAEAIoQQAAAAQQigBAAAAhBBKAAAAACGEEgAAAEAIoQQAAAAQQigBAAAAhBBKAAAAACGEEgAAAEAIoQQAAAAQQigBAAAAhBBKAAAAACGEEgAAAEAIoQQAAAAQQigBAAAAhBBKAAAAACGEEgAAAEAIoQQAAAAQQigBAAAAhBBKAAAAACGEEgAAAEAIoQQAAAAQQigBAAAAhBBKAAAAACGEEgAAAEAIoQQAAAAQQigBAAAAhBBKAAAAACGEEgAAAEAIoQQAAAAQQigBAAAAhBBKAAAAACGEEgAAAEAIoQQAAAAQQigBAAAAhBBKAAAAACGEEgAAAEAIoQQAAAAQQigBAAAAhBBKAAAAACGEEgAAAEAIoQQAAAAQQigBAAAAhBBKAAAAACGEEgAAAEAIoQQAAAAQQigBAAAAhBBKAAAAACGEEgAAAEAIoQQAAAAQQigBAAAAhBBKAAAAACGEEgAAAEAIoQQAAAAQQigBAAAAhBBKAAAAACGEEgAAAEAIoQQAAAAQQigBAAAAhBBKAAAAACGEEgAAAEAIoQQAAAAQQigBAAAAhBBKAAAAACGEEgAAAEAIoQQAAAAQQigBAAAAhBBKAAAAACGEEgAAAEAIoQQAAAAQQigBAAAAhBBKAAAAACGEEgAAAEAIoQQAAAAQQigBAAAAhBBKAAAAACGEEgAAAEAIoQQAAAAQQigBAAAAhBBKAAAAACGEEgAAAEAIoQQAAAAQQigBAAAAhBBKAAAAACGEEgAAAEAIoQQAAAAQQigBAAAAhBBKAAAAACGEEgAAAEAIoQQAAAAQQigBAAAAhBBKAAAAACGEEgAAAEAIoQQAAAAQQigBAAAAhBBKAAAAACGEEgAAAEAIoQQAAAAQQigBAAAAhBBKAAAAACGEEgAAAEAIoQQAAAAQQigBAAAAhBBKAAAAACGEEgAAAEAIoQQAAAAQQigBAAAAhBBKAAAAACGEEgAAAEAIoQQAAAAQQigBAAAAhBBKAAAAACGEEgAAAEAIoQQAAAAQQigBAAAAhBBKAAAAACGEEgAAAEAIoQQAAAAQQigBAAAAhBBKAAAAACGEEgAAAEAIoQQAAAAQQigBAAAAhBBKAAAAACGEEgAAAEAIoQQAAAAQQigBAAAAhBBKAAAAACGEEgAAAEAIoQQAAAAQQigBAAAAhBBKAAAAACGEEgAAAEAIoQQAAAAQQigBAAAAhBBKAAAAACGEEgAAAEAIoQQAAAAQQigBAAAAhBBKAAAAACGEEgAAAEAIoQQAAAAQQigBAAAAhBBKAAAAACGEEgAAAEAIoQQAAAAQQigBAAAAhBBKAAAAACGEEgAAAEAIoQQAAAAQQigBAAAAhBBKAAAAACGEEgAAAEAIoQQAAAAQQigBAAAAhPjOsANA2brl6sVsNnuR3sTR1pt5NZvNvt/6n/v/m+cHvtn72Wz28cF/dpX+/bT1v/u4Xsw/+UgBALvo1uu1gQKAjG2FDpuQYfvfZ5m+8putsOJTCjBu14v5bQavDQDIhFACADLRLVevtsKHzf/7ZYXP5zqFFbepsuJqh/8/AECFhBIAECAFENs/rxt/Dpug4ioFFSoqoGIPjp3NHhw923h4BO1bNpVZ27b/M9VakCGhBACMLC2+X6VFtwBiN3cpoLjs/9WnAsrQLVcPj5jNtgKHp/S1GdrmiNntgx99cWBiQgkAGFgKIY62fnJZhJfsJgUUl+vF/GHDTWBCW8HDJnw4Sv/WdNzseiusuBJWwHiEEgDwREKIyX2uolgv5peNvXeYVLdcHW31uHmVeYPdsd1vHTMTVMBAhBIAcIC0UD9OIUSNzShLcZ8qKC40zITDbVU/HG2FDwLWb7vZDir0rID9CSUAYAdpwb4JIY4b3inM2V0KKM59MYDHbVVAHAkgBrWZh670w4HdCCUA4Cu2goj+541xKkp/HvwiHfHwpYCmPaiCONJsd1Ifto6bCUvhC4QSALBFEFGd+xROqJ6gKY6YZelmKyw1H0EilACAPxfw/eL9RBBRtb564kzvCWrULVevto6XqYTIn4ACEqEEAM1Ki/iT9KNHRDvuUjhx0fpAUK5U1bVdDaEnRLk+pHDCnESThBIANGXreMapkubmCScoiuNl1XPcjCYJJQBoQrdc9Xfsn7k5gy8QTpCtFEScOJbRnOt01bF5ieoJJQCoWuoVcWoxzw6EE2RBRQRb7raqJ9wkRJWEEgBUZ2tBf+acNQfovwScrhfzS4PHlDTc5RH90Y7zVD3haAdVEUoAUI0URpymH0c0eCq3dTC6dLTsVMNd9vA+zU3CCaoglACgePpFMDJfABhct1xtbv5xtIxDmZuoglACgGJthRFvPUVGdp/OdJ8ZaA6lKoKRvE9HzvScoEhCCQCKI4wg0E1a/DvSwc665eoohRF6RTCWTc8JDTEpjlACgGKknhF9GPGjp0awd6ls2uKfr0pHNPow4qVRYiL3KTh1ixDFEEoAkD0NLMlUv/g/cUsH29z+QyZUdVEMoQQAWUs7jefCCDL2IYUTqiYaJjwlUx9SOKEZJtkSSgCQpXQG+1zZM4XoqyaO7Uq2RxhBAe7TcbNzD4scCSUAyEpqYnmuIRyF0muiEcIICnSTqro+enjkRCgBQDa65erMAp8KWPhXLh0r0zOCUv3iemNyIpQAIFw6qnFhgU9FdMCvkLmKighPyYZQAoAwqfz5wlENKvY+hROOcxSsW65epWNlr1sfC6qjaoJwQgkAQnTL1XEKJBzVoHY3qQmm7veFScFp/4Xtx9bHgqqZowgllABgUqmR5YUdRxrjdo7CdMvVaQokBKe0wJEzwgglAJiMRT7MfrDoz5ujGjTuQ+o14cgZkxFKADA6vSPgL96vF/MTQ5IXRzXgs7tU2aUJJpMQSgAwKr0j4IvsRmbErRrwRT+tF/NzQ8PYhBIAjMKuI3xT31zuSDARxzwF3+QGIUYnlABgcOlMdr/r+NLowqN0vQ+iOgJ2Zp5iVP8wvAAMqVuu+rPyVwIJ2En/e/IxBXlMpFuu+pL03wUSsJPNPHVkuBiDSgkABpHKoPuF/lsjCnu7T0c5NJYbkSoueDI3CDE4lRIAPFla6F8JJOBgfSPYKxUT40lXEqvigqf5rVuuhBIMSqUEAE/idg0YlIqJgbmSGEbhBiEGI5QA4GDdctV3rf/ZCMKgBBMDSZUnl3pHwCjcIMQghBIA7M3OI4xOMPFEqenub0W/CcjfXbqZw1zFwYQSAOylW65epJ1H57JhXIKJA6Uz73rcwDTMVTyJUAKAnW01tNQ/AqahPHoPqYpLM0uYnmCCg7l9A4CdpFLofwskYFIv060c3xv2x6XQ9FYgASE2NwgdG372JZQA4JvSVXrOZkOMl+nIFF+RQlNVXBCr//1bpt9H2JlQAoBHpbPZvxolCPU6/S7yQLoF6DeBBGTjN8EE+9BTAoAvSuXi55rFQVZ+Wi/m5x7JnzS0hKz9sF7Mhal8k1ACgL/RLA6ytlgv5k0f50hzVD8GrzN4OcDXNT9f8W1CCQD+QiAB2Wu6y705CoriVg6+SU8JAD6z2Ici9L0TLlq8kSPdsPHRHAXF2NzK8coj42uEEgD8wXV6UJT+97Sps9ppjupD0+cZvBxgd4IJHiWUAGB7sa97PZTjTbqut3rmKChesxVefJueEgCNs9iH4v2r5vPa5iioyk3qMfHJY2VDpQRAwyz2oQqXte4+mqOgOi/TdePwmVACoFEW+1CN5zUu8rvl6sQcBVV62y1Xggk+c3wDoEECCajSYr2YX9bwxrrl6mg2m/2ewUsBxvPDejFvqmEvXyaUAGhMKvO+FUhAde5ns9mr9WJ+W/IbE5pCM+5Tf4lqe+KwG8c3ABqSAgmLfajTs9KvCRVIQFOe1dwTh90JJQAasRVIvPTMoVqvS70mVCABTep74lRx7IzDOb4B0ACBBDSlL4l+UdKVewIJaN4v68X8rPVBaJVKCYA2XAgkoBlFHePolqsXAglo3s+pwS0NEkoAVK5brvovJ288Z2jKm265Os79DacqrkuBBNCHqfpLtEkoAVCxbrnqSyHfesbQpPOcF/iOlQEPPC+9WS+HEUoAVKpbrk76ckjPF5rVL/BzbnrpWBnw0Ju0fqEhGl0CVCidy/zdswVms9k/14v5bU4DkY6VqeICvqRv1vsqt3mL8aiUAKhM6mLvei1gI6ty6HRlqUAC+JqimvXydEIJgIqkM9oXmsYBW17n0tU+lWX/msFLAfL2OgWYNEAoAVCXS2e0gS8I33VMVVzn0a8DKMaZ2zjaIJQAqEQ6o/3a8wS+4Hlk87itmzZUcQG7coyjERpdAlQgfdn4zbMEHtE3j3uxXsw/TTlIrv4Enui/1ov5lUGsl0oJgMKlkmiBBPAtz4KuCD0XSABPoFqickIJgIJt7UAC7OJ0yjPabtoABtAfPzszkPUSSgCUzRltYB+TVUukGz/ctAEMYdJAlWkJJQAK1S1XSqKBQ4y+uO+WqxfpNiCAITxze0+9hBIABeqWq+PZbPajZwccYIpqiUtVXMDA3qbAk8oIJQAKk/4ga/oEPMVo1RKquIARWf9USCgBUB47kMBTjVItoYoLGNnr1K+GigglAApiBxIY0KDVEqq4gIm4iaMy37U+AAClsAPJI+5ns9nHHQao/9L43ECS9NUSxwMGCaq4gCn8US2xXsxdiV4JoQRVSDs9rzxNkiHL+vovelfrxfxT5OCmz7gdyLbdzGaz2/SZ7H/6z+THQz+b3XLVz5nfp9+XzRz6uvVBbtDZEHOLKi6+Ynve+rQVnt6uF/PbXQdtq1z/xYMfc1a7zgZe7xGoW6/Xxp9ipVLRfiH0xlNkRO/Xi/lJ5AB3y9WVxVdT+sqHq/TzccrdoBRWvEqLvSOVFU1YrBfzg6/vTF8Yf299EJldb4L8FDrsUr31ZGktuJmzhKtt+S/VEnUQSlCsVMp+oVSUCXxYL+bHUQPdLVd9M7pfPejq3aTy98upFvO7SAv+o1TmLwCu08FzXKriuvW3uEnXm/A0ty+GKSg7TnOXCp56ha7PGI5QgiKlnbwriyAm8q+oL4npC+FHn/Vq3aRw9XKfUuZIKRDuf962/vBqsl7Mu0PeTrdcXQqrmnGT1l6XJe1Op7+j/Zx1IqCo0j9L+fvJ1wklKE7albnyh4WJ/LJezMO6PHfL1Uef9ercpSDiouSFVJqLj9O1kj6jhTsklFDF1YTigtPHpIDiNM1djqbVIfyILU8nlKA4dmWY0N16MX8RNeDdctWHIT974NXoS53Pn3J2P1epem2z0FfVU6B9QwlVXFWrKoj4mm65OknVE3pQlK3vwfQiuiE5T+P2DYqSdmUEEkwlLHlPX/IEEnV433cJr3lxn443naTqidP048tqOX454JXq6VSXu9TT5ryVUvj1Yv5HxdpWqOpIWpmepfXaeesDUTKVEhRDd28m9m69mJ9GDbrbNqpQfRjxmLQLeaZEOnt7H1FzbKMqH9JRsuoquPaVqn/OhBNFCq1s5emEEhRBd28m1u8YvYoqBbTgL17TYcRD6fN8Zv7OysG74o5tVOE+PX/z1BekyolzGwPFedLVxsQSSlAEzf6YWNgfNgv+ogkjvmLrWIcjSTHuNlc3pusbD/6MquIq2n36sn3u/P23pZuGzlV7FcP1oAUTSpC9brm6UErHhEL/qFnwF+k6hRHFXJEXJYVuFz7joxsshNiWjuT8VsQIsE0YcSCBanH+h894mYQSZM0CiImFdnBOuzJLD70Y/eflNDVLYw/ps65R4nA25fiDhhDbHKMskjBiIOlIx4Wq3ez9tF7MNbwskFCCbKU/AFcWQEwo7I9ZWvB/VCZajHepOsJC/0CqJp7k/kElxMex/wtVLRbHHDUCV3Vn72a9mL9qfRBKJJQgS76gEeB6vZgfRQ18t1z1YciPHnz2+rL4E0c1huOzv7PrTTXEFCHENrdfFeU6zVF624wk/T5c2jTL1j99/svzXesDQLY0FmJK9+mO6xCpKsiXsvzZeRxBf/VuamZ8bpH/FzdbIUR0COaIUv7u0nEytw+MrP99TJVeV45zZOk0/VAQoQS5ctcwU8lhV8n5x7ypjhhZ35cjBRMtH9m7e9AXIovwK5Wr2yTIm8B0YmmsXznWlKVjoUR5HN8gSymBDtu5pgm3YzWE24fmltn7kAIJi/0JNNZLaPTmlE/liuLsCUwzoCl7lv419TE3nkYoARCoW65u7UJmyc0aQSoPJsL6QhzCLnDW3qc5SmCaAcFEdtzCURihBEAQXbyzdZN2H+2yBKkomLhJ7+OytN1szS2zdZ/mJ70jMuPWuKy4haMwQgmAAO78z5bjGpkodIF/t3VV52XJn6NuubpyXWt2+pDr2M0C+RJMZMUtHAXR6BIgxplFS3Z+WS/mZ60PQi76SpW0W5/zAv/+QQhRxQI4laILJPLiuEYBCpm3WnHk5qByqJQAmFhqHvffxj0b+kdkLMNmsNdbzSmrbDCo1012nI8vjONPWfiwXsyPWx+EUgglACameVxW+kDiSP+IvAU3kbvZqobI5qrOsXTLVX+V3q91vrvi6B9RMM0vw92vF/PvGx+DYgglACakSiIrGloWpFuu+p3iHyd4xXcPQohmziTrdZMVgWkFhHzhXA1aCD0lAKalZ0EebtKC3/nsQqwX89P0pXnoKqNNX4jL1kKILzgVSGRBYFqJ/thNan6pOjJGf3zD71EBVEoATESVRDYEEgUb4FaI+weVEBasqiRyYn6qULdc9fPMy9bHIcD1ejE/au5dF0ilBMB0VEnEs+Av33GqatgnmLjeqoQQQnyZKol45qd6bXbs/Y5Nyy1ChVApATABVRJZsOCvyDd6TFR/Q8aQVElkwfxUOTdyhNFXogAqJQCmoUoilgV/ZVKPifO0A9l/qe6f7UchxEFUScQyPzWgn5u65erdRA17+Y8jfSXyp1ICYGSqJMJZ8MNXqJII55aNhqTftyv9JSb1fr2YnzT0fov0j9YHAGACqiTiCCTgcaok4ggkGpP+FvmCPC2NLgsglAAY0UhXGLKbfsF/LJCAR50anjCu/WxQeubvWh+HCT1PazEyJpQAGJcFf4zNDuRti28edtEtVyeqJML8tF7MLxt97/xZQXlnHCbzqpH3WSyhBMC4hBIx7EDCtzlaFqM/437e4hvnT6mCz+/fdIQSmRNKAIzELmSYX+xAwuO65aq/teS5YZrcjaZ7zP4MJi7S9cWMTyiROaEEwHhUSUzvw3oxt/sE32Z+mt59usIWNvy9msaLFt5kyYQSACPolqsjV35N7k5Xc/i2dE3xa0M1uRN9bti2XsyvVEtMwnyXOaEEwDh8OZ6emzZgN3Znp/fOsTK+wu/jBFIYS6a+82CASOmPxCB/KNKOQzjXgIb4SWNL+LY0PzlCMK07Xzz5mn7t0i1X13bzR9evNVUqZUooUYlUKn6SFhoa69GkbrnaXAMZ/eVUlcS0rnWyh51ZJ0zvRBUX39CHVr8bpFH1zS6z2Lzi7xzfqEC3XJ2nieythQaNe5bJbpQGctO5FwLBXsxP03qXSxUf+dJbYhLfN/AeiyWUKFy3XPVfwH5sfRxgS+huVLdcvXLN3qTONI6D3aT5SQPe6Ti2wT4ujNaoXAuaMaFEwdId4z+3Pg7wQHQjMbuQ03FsA/ajqmhajm2ws/VifpGq/xiHSomMCSUKlXY7JKrwV/cZdDfXQG46vmDBfvzOTOeDYxscwNp+PColMiaUKFDqnH2hfwT8TWgg0S1XJ34vJ/OLYxuwu1RdaX6ajqo5DqH6bzzmv4wJJcp07kwofJEqiTbcWbjB3lRJTEdoykHS5+bG6I0jXUNPhoQShemWq9N0ywbwV6FHN1IF0xvPZBJnzmnD7sxPk7oXmvJEjnCMRyiRKaFEQbrl6mg2m/3a+jjAV6iSaMNNagYG7M78NB2hKU8VvZ6pmWaXmRJKFCLtcpik4OuiG4pZ9E/DOW3Yn/lpGnduBOKpHOEYlWaXmRJKlONKgxZ4lKMb9bvWzR72Y36a1FlD75Vx+VtHU77zuPPXLVcaW8LjPgSXy9qFnIYF/1ekL552gPiS/2lUJnHnaBkD6jdafjSgg3N8I1NCicylKwZNSvC46KNNR8H//S1QJfFA6jN0kkIxlXQQy7ENBtP/veuWq3tz++CE95kSSmQsXVvjjxw87l6TyybYgUxSVcSFknzIxr05ihF8nM1mrw0sLdBTIm8nElJ4VL8QPIo8upF2q/2ejktZdNItV/0uz61AArJy7sYNRqA6kGaolMjbZSozcv4J/upT+mN9kcFCUJXE+FSM/SeQ0PQY8iM0ZQz9fP+zkR2U4xuZEkpkbL2Yf/SFB7Knn8S4lEX/x4VAArLzPl3hCINKfSUM6rD8Dc2U4xsAB0pn+92MM65LZdF/fNbOfNYgS0JTxnRjdGmBUALgcCqZxtf8gj81PVbCC/m5cysQI1OFQxOEEgCHc3RjXBb8fzrL4UUAf6PfDWP7aIRpgVAC4HBCiXGpkvizueXbDF4K8HfNz1GMTqXEwNKtaWRGKAFwgFRS/9zYjcqC304s5OqDfjdMQChBE4QSAIdxrdS4blrvaJ92c15n8FKAv7s0JkxA8EUThBIAh1H+Ny4Lfr0kIGfmKEa3Xsz1lKAJQgmAw6iUGFfTC35VEpA1RzcABiSUADiML4zjubM7pEoCMqZKAmBAQgmAPencPLqmrwFVJQHZE0owpTujTe2EEgD7c3RjXE2HEqokIGuObjA1N3BQPaEEwP6EEuNqdhdSlQRkr/XQFGBwQgmA/b0wZqO5a3wXUpUE5M3RDYCBCSUA9mcnezzN7kKqkoDs9aGpUnqm5jNH9YQSAHvolitHN8bVcmn0aQavAfg6RzeIIJSgekIJgP04ujGuJq8C7Zar/nP1JoOXAnydoxsAIxBKAOxHpcSI1ot5k6GEXhJQBJUSRPjeqFM7oQTAfoQS47mu9Y09JlVJvM33FQKa8BLIumNYrW5+ZE0oAbAfOxbjafXcrCoJyJ8qCaiAcDFPQgmA/bgdYTzNhRKqJKAYdleJYjOE6gklAMhFizuRJxm8BuDbVEoQ5aWRp3bfecIwnLTreer83yj6XaqzyLK7brk6ivrvbkRTJZXdcvW9a0ChDA034QUYnVACBtItV/2O52/GczSvUwmjneVKNbjo7wOJZxm8DuBxN8aHCDZDBtdkQ+0SOL4BA+iWq2OBxCSOg//7LQ7Gc1/rG/sSVRJQlFab8BJPPwmaIJSAJ0pfLs6N4yR0TK5Xa1USx6okoBiObhDFcWCaIOJRTZQAABwZSURBVJSAp+t3O58bx0lE71ZZHDAU14BCOQTiRHlh5AclYMyUUAKeQAl2c5RRjqeZhULqPyPIhHL4IkMUocSwBIyZEkrA05wrwZ6UK9nq1dJCQZAJwC5eG6VBCSUyJZSAA3XLVV/K/9b4NcXigCdJndTdOQ8FWS/mAnEml66ZZ1iqnjIllIDDaW45PQk3pdNLAoBd6GNFM4QScIC022nXfHoS7npVvxOZdr3MGwDsQigxMFVP+RJKwGEujFtblFEyAFUSAOzqyEjRCqEE7Enn/FCRlRJCCQ6WQi09aKA8N54ZQVTWDeu6pjdTG6EE7CFdAaqXRJD1Yq6nBKU68eSgSP7uMLl0TBiaIZSA/Zy6AjTMXaPvm8KlMNM1oADsSj+J4eknkTGhBOxHch1HHw9KdSzMBGAP1pvDu63tDdVEKAH76Y9u3BuzSfUVEj+tF3NNAimVzy6Uy441Ed4Y9cEJJTL2XesDAPtYL+aXs9nse4MG7KJbro41xoWiqXJiUunvBsNzrXzGVEoA7EYpJYfQSwKAfVhvDO9es/S8CSUAYATdcvXKlW4A7EmlxPBUSWROKAFADmo8FqVKAirQLVcvPEemkMJsR/6G5+aNzAklAMhBVc3k0jWgbzN4KcDTCSWYyomRHoUml5kTSgDA8FRJQD00uGYqjm6Mw/GNzAklAMhBbYt+u11QD9eCMjpHN8azXsyFEpkTSgDsRunfuKpZ9HfL1YmFJVTF8Q2moMJuHNc1vqnaCCUAdiOUGFdNlRKqJKAuQglGlfoQOboxDk0uCyCUACAHL2t4Cq4BhSr5nWZsfSDxzCiPwtGNAgglAMhCJdfuKb+FCrkWlJH52zEelRIFEEoAkIsa+koov4U6aXbJKLrl6qiWasEM3awX80+tD0IJhBIA5KLoRX9aWCq/hTodea6MRB+i8aiSKIRQAmA3kvbxlb4T6UsL1MvvN4NLx4LeGtnRCCUKIZQA2IE7ridR+qJfeTfU62W6IQGGdGY0RyWUKIRQAoBcPCu8mZwvLFA31RIMRpXE6PSTKIhQAoCcWPQDuTI/MSRVEuNSJVEQoQTA7u6M1ehKXvQ74gN1c7sOg1AlMYnLBt5jNYQSALu7NVajK3nRb1cG6va8W670jmEI50ZxVPfrxdzf5IIIJQDIybNSF/3rxbzflbnJ4KUA43F9I0+Sro9+YxRHJZAojFACYHfK86dR8qK/f+33GbwOYByOcPBUqiTG5+hGYYQSALvTxXkaxS7609WxfaXHdQYvBxieIxwcrFuuTvvrZY3g6IQShRFKAOxOKDGNohf968X8dr2Y9+W5/5zNZj/NZrMPKaRQQQF1OPUc2Ve3XH3vxo1JfHAVaHm+a30AAPbg+MZ0Tkpf+PfhRCrTVao7gLSg78f0WfFvhtId959HX3zY04X5axKqJAqkUgJgdxag09FMjocuLejJxDNzFPvolqtjzS0nI5QokFACYEepXwDT6G/hsOjnD+kc9mujQUYc4WAnqcrrwmhNwtGNQgklAPajL8B0hBLMUn+RX40EmXkuOGVHjm1MR5VEoYQSAPtRLTGd1+k+dxplh5HMCSV4VKrycmxjOkKJQgklAPZza7wmZdHftjPX55ExwSlflaq83LYxnfeObpRLKAGwH6HEtN52y9WLlt4wf0qN4X40HGTO7Tr8zVaVl2Mb01ElUTChBMB+HN+Ynp2mxji2QUFe6i3BF1yo8prU3XoxF0oUTCgBsB+VEtNTLdEe139SEsEpn3XL1Zk+EpMTYhdOKAGwB9eChrHgaITrPynQ8/RFlMalqpmfWx+HANYIhRNKAOzv2phNTkO5Brj+k4KdquhqW5q/fmt9HAJ8WC/mqlgLJ5QA2J8/fjHshFQs9ZFwJphSPTNHtSsFEletj0MQzWYrIJQA2J8jHDGUSNetDySetz4IFO11ujWGhqQKmSt9cEL0DS6FQRUQSgDsTygRR4l0hbrl6kIfCSpxYY5qx1aFl0Aiho2KSgglAPYklQ+lRLoyqTHc29bHgWqYoxqRAokrV3+GuXfkrx5CCYDD3Bi3MK/TDQ0ULgUSGsNRm9eOmtVNIJGF8/Vi/qn1QaiFUALgMKolYv2aGotRqHSbikCCWv3sxqA6bfWQEEjE0uCyIkIJgMPoKxHvMu1WUZgUKCm7pXaX+kvUJc1dHwUS4d6rkqiLUALgMCol4j13drs8W1fnaQxH7Z4JT+th7sqK41GVEUoAHGC9mN/2V1EZu3BvnN0uh0U9DXopPC1f6n9j7srD+7QGoyJCCYDDqZbIw89pwUjGBBI07E269pYCpeD7N3NXNmxEVEgoAXA4oUQ+ftP4Ml+p4Z9Agpa9FUyUpT92k57Zz62PRUZUSVRKKAFwOI368nIlmMhPqmL5XSAR4v81+J5z9tZxszJsVXa9bX0sMuP3p1JCCYADpc7PN8YvG88EE3lJgYRrP+P8n1bfeMb642auMsxYt1wdu/IzS6okKiaUAHgaRzjyIpjIRCp7FkjEuZ/NZv+r1TefuR8d5chPOq7RB0ZLlV3ZuVclUTehBMDTOMKRH8FEoLSwV/Ycr/9y9b9bH4SM6TGRka3jGj+2PhaZOlclUbduvV63PgYAT9ItV5/sqmSp31k5Xi/mqlkmkhb2fVD3vIk3nK+79WL+YvbnM+mfx5vWByRj12me+tT6QERJfT40s8xX/7f8hd+RuqmUAHg61RJ56oOi310XOo2te/wFEvG2y5zNT3l7rbIrRj/m3XL1USCRvTOBRP2EEgBPZ9Gft980lhvP1rV57vHPQ18lsX0swPyUv5cpmDhufSCmkqoj/q2ZZfb6+czf7wY4vgEwAEc4iqBMemCOa2Tpvx4eWXKEoyjv7AyPp1uujmaz2YU5qxh/m8+ok0oJgGHYjcxfXyZ9mxalPNHWTqPFfT6uv7KANz+V40fHOYbXLVcvUjj3uzmrGB8EEu0QSgAMw6K/DJs+E+f9sYPWB+MQfajTLVe3zmFn6fQrL8r8VJb+SMG/U/DHE6TjZf04/rdqoaLcPzKfUSHHNwAG4ghHce5ms9mJnZjdpBDn3FWf2Xq3Xsy/uohPfT88u/KYpw7ULVenqemrv8vl+WW9mAvlGqJSAmA4diPL8jxVTVyomnhc2mm89aU2W/cPbtz4EvNTmbbnqRetD8Yu+puAUjXXrwKJIt0JJNqjUgJgIOkM8L+NZ5HuU3M5Xb63pGs+z5zBzt5Pu3x20xc1z7Jsv/QVSxph/p35qhqaWzZIKAEwIIv+4t2lcOKi8vf5KIv7otysF/OdmiKmihe9QMp3n45SCSfMV7V5v17MT1ofhBYJJQAGlM6w/mpMi9dkOGFxX6R/rRfzj7u88FT+/9+tD1hF7tP1ln04cdvSG0+f5ZPUDNERjTr0n+cXgrY2CSUABpR6E/xfY1qNu61Ff5ULJYv7oj3a3PJL0rWIbiGoz4c0T1Vd9p6udD7R36ZKi/VirvdNo4QSAAPT5b5a7/uAopZFf6qKOPYFtVh9YPZq37Asfan7vfXBq9gmSL2opXpiKzg9UcVVrQ/rxfy49UFomVACYGAW/dW7SzcZXOxaNp+DVMVzlIKIY1URxTt4V1Hvm2bcpIDisrSAIgURxymIeJnBS2I8jm0glAAYQ7dcfbSQasJ9Ciiu0sI/q0VVuhHmKP2oiKjHk3YVU5XMb60PYmNu0lx1mWuYmgL94zRf+fvZDsc2EEoAjMGiv1l3KaDoF/0fpzzqkSohNiHE5l/VEPV58q5i+qzc+nw06z7NU1dTz1MbD+ar/ud16w+lUXv3xaFOQgmAkSiRJrlLXwD7oOLT1r+z9IVg5y+XaSext1nQv0g/r3zBbMYgu4quB+WBmzQ3fZ6rhggrtsKHzVx1lP71t5H+M3fk2AYzoQTAeCz6gYEN1gxOtQR7uNkKUmepwuKhTeiwISjlW3a+zpj6CSUARmLRDwxo8GZwglMgyE/rxfzc4LPxDyMBMI705cEfXWAIxyOUOZ+nsANgKh8EEjwklAAYl0U/8FTvxmhGKDgFJnaXrnmFvxBKAIzIoh94opuRu9MLToGpjFHxRQWEEgDjs+gHDnE/9q6i4BSYyE8aW/I1QgmAkVn0Awc6nWgRLzgFxvReHwkeI5QAmIZFP7CPfhF/McWIpeB0zCMiQLtuzC98i1ACYAIW/cAeJl/EpwDkzkMCBnSvjwS7EEoATMSiH9jBH30kghbxuuIDQ+oDiVsjyrcIJQCmZdEPPGaqPhJ/k64d/eDpAAP4YYyrjKmTUAJgQhb9wCPeTdVH4hGn+t8ATzRZTxzqIJQAmJ5FP/DQ9XoxD+87k0qtdckHDvVhvZirCmUvQgmAiVn0Aw/0vWaOcxmU9WJ+lpptAuzjxjFVDiGUAAiQFv2aXgK5dqd3WxCwj34uO3LTBocQSgDEsZsAhDW2fEzqf/Ou+acD7EIgwZMIJQCCWPRD837JvBmcii5gF0c5hquUQygBEMuiH9r0Ph3jylba9VTRBTzmB4EETyWUAAhk0Q9NuimlO32q6Polg5cC5OcHV38yBKEEQDDHOKApfXf6o5LesNs4gC8QSDAYoQRAHiz6oX653rSxi5P0+gHeCyQYklACIAOOcUD1Nt3pb0t8o+nMuGtCgfelHD+jHEIJgEykRf9PngdU6bj0ZnBpZ/R9Bi8FiCGQYBRCCYCMrBfz89ls9sEzgar8kHrH1ODUUTNokkCC0QglAPJzYtEP1aiqGVw6anasvwQ0RSDBqIQSAJnZ6i9h0Q9lq7I7feqL4QsKtEEgweiEEgAZ0lQOild1d/r1Yn6pBw5UTyDBJIQSAJlKX2jeeT5QnCYW8qkHjsaXUCeBBJPp1uu10QbIWLdc9TuSbzwjKEJzC/luueoru15m8FKAYbxbL+aqNZmMSgmA/Gl8CWVodWfxyBwF1fhBIMHUVEoAFKBbrr6fzWZ9c7lnnhdkqelS5265ejWbza7MUVC0Kpvzkj+VEgAFSDdyHLmRA7LU/Nnr1JzXHAVl6n9vFwIJoqiUAChI2o38t2cG2fhlvZifeRx/6parPpj4PYfXAuykDySOUrAIIVRKABQkLRp+8MwgCz8IJP5qvZhfmaOgGDcCCXKgUgKgQN1y1ZeK/+bZQRhnrx9hjoLsbQKJTx4V0YQSAIWy6IcQfanzqUDi28xRkK3m++CQF6EEQMEs+mFSzl7vyRwF2dEHh+wIJQAKZ9EPk7ibzWbHAon9maMgC32oerJezC89DnIjlACogEU/jMrZ6ycyR0EooSpZc/sGQAXS+XYd72F47wUST2eOgjDXs9nslUCCnKmUAKiI3UgY1Lv1Yn5qSIeT5qjz2Wz2rJb3BBnTP4IiCCUAKiOYgCdzw8aIuuXq1Ww2uxJMwGju03GNK0NMCYQSABWy6IeDOXs9AXMUjOYmzWG3hphSCCUAKmXRD3u7Tot5/SMm0C1X36c56mX1bxam4bgGRRJKAFTMoh92pn9EgDRH9cdk3jT35mE4jmtQNKEEQOUs+uFR7u7PQLdc9XPU29bHAQ7wIc1hKrwollACoBHdctV3vP/R84bPnL3OiCa9sBcNeamGUAKgIRb98JnjGhnSCwd2cp2qIwSqVEEoAdCYtOjvS9Wfe/Y0yNnrzOmFA1/Vz19n68X83BBRE6EEQIPSor8PJl57/jTE2euCOHIGf6E6gmoJJQAa1i1X/dVhP/sMUDnNLAvVLVfHqVGv4xy0Su8IqieUAGhct1wdpaoJi35qZHexcN1y9SLNUY5z0Jr3KZBQ3UXVhBIAOM5BjewuVkZlFw25SfOX3jc0QSgBwGfdctXfRvCrEaFwekdUKlV2XWjUS6U0sqRJQgkA/iLdznGhVJoC3aUwwu5ixVJl15kmmFTGUQ2aJZQA4IuUSlOYX2az2bkFfTtUTVCJ6xRGfPRAaZVQAoCvUjVBATSybJiqCQqmsgsSoQQA36RqggxZ0PNZqpo4F6BSgLvUN0ITXkiEEgDsJF3Ld+GGDoK5VYOvSgHqqSuOydB9OmJ25uHAXwklANhLt1wdp3DCop8p3aedcH0jeFQKUPsvfm+NFBkwd8E3CCUA2Fs6x33qSAcTeZfKnS3o2Vk60nGmuosgwgjYkVACgIOlHcl+0fXGKDKC9ymM0MSSg3XL1UkKJ9zSwRT0jIA9CSUAeDI7kgxMGMHg9JtgZDepKkIYAXsSSgAwGDuSPIFSZ0a3dfRMOMFQPqR5y01AcCChBACDE06wh7vUOFUYwWSEEzxRH6JequiCYQglABiNcIJHXPdhhFJnIgkn2NNNqui6FKLCcIQSAIwuhRP9ov+l0W7e+1QV8bH1gSAvQlS+YlMVYd6CkQglAJiMhpjNuku7ixd2F8ldt1wdpxDVPNU2VREwEaEEAJNLV4n24cSxkulq2V2kaGme6sOJE/NUMzY9bi70ioDpCCUACJPOcx8rma7Kh7SzqFcE1UhHO05UT1TpLgWoFwJUiCGUACAL3XL1Ku1Kqp4oz4e0qFfmTNW2qieOBalFE0RARoQSAGQn7Ur2i/43nk62BBE0TZBanJutOUsQARkRSgCQra3jHQKKeP3O4lVa1F8JIuA/UnPM/udIBUU27h/MWXpEQKaEEgAU4UFAcWRnchLXWwt6O4uwg1RBcZLmKdcgT+tma866aumNQ8mEEgAUKe1MHln4D+o67Sxa0MMAUg+KI2HqaG42c5YKLiiXUAKA4m0t/I+UT++sP47xMS3mPwohYHypimJ7rhJS7O5+a84SnEJFhBIAVCcd9dgs+l+5xu+PAOJ2E0CkEML5agiWQopXW3OVqq//uN7MV2nOcoQMKiWUAKAJW4v/TVXFiworKjbhw8etfz8qaYZydMvVJqDYzFe1h6rXab66FZpCm4QSADQtfQF48YWfHAOLTfnyLFU9bP79ZBcR6pVC1e+3AtUXKbTI/fjHJiidPZizZo5fABtCCQD4inQM5FX6326+FMy2vhRs+37P0uvrL/xnfbCwqWr4tBVA3No5BL5kK7DY/Ls9P41RZbEdjt5uhQ6f5y+BA7APoQQAAFRuK7zYePg/f8nn0EHQAIxFKAEAAACE+IdhBwAAACIIJQAAAIAQQgkAAAAghFACAAAACCGUAAAAAEIIJQAAAIAQQgkAAAAghFACAAAACCGUAAAAAEIIJQAAAIAQQgkAAAAghFACAAAACCGUAAAAAEIIJQAAAIAQQgkAAAAghFACAAAACCGUAAAAAEIIJQAAAIAQQgkAAAAghFACAAAACCGUAAAAAEIIJQAAAIAQQgkAAAAghFACAAAACCGUAAAAAEIIJQAAAIAQQgkAAAAghFACAAAACCGUAAAAAEIIJQAAAIAQQgkAAAAghFACAAAACCGUAAAAAEIIJQAAAIAQQgkAAAAghFACAAAACCGUAAAAAEIIJQAAAIAQQgkAAAAghFACAAAACCGUAAAAAEIIJQAAAIAQQgkAAAAghFACAAAACCGUAAAAAEIIJQAAAIAQQgkAAAAghFACAAAACCGUAAAAAEIIJQAAAIAQQgkAAAAghFACAAAACCGUAAAAAEIIJQAAAIAQQgkAAAAghFACAAAACCGUAAAAAEIIJQAAAIAQQgkAAAAghFACAAAACCGUAAAAAEIIJQAAAIAQQgkAAAAghFACAAAACCGUAAAAAEIIJQAAAIAQQgkAAAAghFACAAAACCGUAAAAAEIIJQAAAIAQQgkAAAAghFACAAAACCGUAAAAAEIIJQAAAIAQQgkAAAAghFACAAAACCGUAAAAAEIIJQAAAIAQQgkAAAAghFACAAAACCGUAAAAAEIIJQAAAIAQQgkAAAAghFACAAAACCGUAAAAAEIIJQAAAIAQQgkAAAAghFACAAAACCGUAAAAAEIIJQAAAIAQQgkAAAAghFACAAAACCGUAAAAAEIIJQAAAIAQQgkAAAAghFACAAAACCGUAAAAAEIIJQAAAIAQQgkAAAAghFACAAAACCGUAAAAAEIIJQAAAIAQQgkAAAAghFACAAAACCGUAAAAAEIIJQAAAIAQQgkAAAAghFACAAAACCGUAAAAAEIIJQAAAIAQQgkAAAAghFACAAAACCGUAAAAAEIIJQAAAIAQQgkAAAAghFACAAAACCGUAAAAAEIIJQAAAIAQQgkAAAAghFACAAAACCGUAAAAAEIIJQAAAIAQQgkAAAAghFACAAAACCGUAAAAAEIIJQAAAIAQQon/344dEwAAwDAMqn/Vc7E8IAMAAAAgISUAAACAhJQAAAAAElICAAAASEgJAAAAICElAAAAgISUAAAAABJSAgAAAEhICQAAACAhJQAAAICElAAAAAASUgIAAABISAkAAAAgISUAAACAhJQAAAAAElICAAAASEgJAAAAICElAAAAgISUAAAAABJSAgAAAEhICQAAACAhJQAAAICElAAAAAASUgIAAABISAkAAAAgISUAAACAhJQAAAAAElICAAAASEgJAAAAICElAAAAgISUAAAAABJSAgAAAEhICQAAACAhJQAAAICElAAAAAASUgIAAABISAkAAAAgISUAAACAhJQAAAAAElICAAAASEgJAAAAICElAAAAgISUAAAAABJSAgAAAEhICQAAACAhJQAAAICElAAAAAASUgIAAABISAkAAAAgISUAAACAhJQAAAAAElICAAAASEgJAAAAICElAAAAgISUAAAAABJSAgAAAEhICQAAACAhJQAAAICElAAAAAASUgIAAABISAkAAAAgISUAAACAhJQAAAAAElICAAAASEgJAAAAICElAAAAgISUAAAAABJSAgAAAEhICQAAACAhJQAAAICElAAAAAASUgIAAABISAkAAAAgISUAAACAhJQAAAAAElICAAAASEgJAAAAICElAAAAgISUAAAAABJSAgAAAEhICQAAACAhJQAAAICElAAAAAASUgIAAABISAkAAAAgISUAAACAhJQAAAAAElICAAAASEgJAAAAICElAAAAgISUAAAAABJSAgAAAEhICQAAACAhJQAAAICElAAAAAASUgIAAABISAkAAAAgISUAAACAhJQAAAAAElICAAAASEgJAAAAICElAAAAgISUAAAAABJSAgAAAEhICQAAACAhJQAAAICElAAAAAASUgIAAABISAkAAAAgISUAAACAhJQAAAAAElICAAAASEgJAAAAICElAAAAgISUAAAAABJSAgAAAEhICQAAACAhJQAAAICElAAAAAASUgIAAABISAkAAAAgISUAAACAhJQAAAAAElICAAAASEgJAAAAICElAAAAgISUAAAAABJSAgAAAEhICQAAACAhJQAAAICElAAAAAASUgIAAABISAkAAAAgISUAAACAhJQAAAAAElICAAAASEgJAAAAICElAAAAgISUAAAAABJSAgAAAEhICQAAACAhJQAAAICElAAAAAASUgIAAABISAkAAAAgISUAAACAhJQAAAAAElICAAAASEgJAAAAICElAAAAgISUAAAAABJSAgAAAEhICQAAACAhJQAAAICElAAAAAASUgIAAABISAkAAAAgISUAAACAhJQAAAAAElICAAAASEgJAAAAICElAAAAgISUAAAAABJSAgAAAEhICQAAACAhJQAAAIB/2w6LhvJSJ+iOngAAAABJRU5ErkJggg==;labelPosition=right;align=left;" vertex="1" parent="x3nWLXFqhXbbvrtJv1Lh-9">
          <mxGeometry x="10" y="11" width="42.98" height="38" as="geometry" />
        </mxCell>
        <mxCell id="x3nWLXFqhXbbvrtJv1Lh-12" value="" style="edgeStyle=orthogonalEdgeStyle;rounded=0;orthogonalLoop=1;jettySize=auto;html=1;labelBackgroundColor=none;endArrow=blockThin;fontSize=12;strokeColor=#4284F3;fontColor=#000000;startFill=1;startSize=4;endFill=1;endSize=4;strokeWidth=2;dashed=0;exitX=1;exitY=0.5;exitDx=0;exitDy=0;" edge="1" parent="1" source="x3nWLXFqhXbbvrtJv1Lh-10" target="x3nWLXFqhXbbvrtJv1Lh-14">
          <mxGeometry relative="1" as="geometry" />
        </mxCell>
        <mxCell id="x3nWLXFqhXbbvrtJv1Lh-13" value="" style="group" vertex="1" connectable="0" parent="1">
          <mxGeometry x="546" y="140" width="160" height="60" as="geometry" />
        </mxCell>
        <mxCell id="x3nWLXFqhXbbvrtJv1Lh-14" value="" style="strokeColor=#dddddd;fillColor=#ffffff;shadow=1;strokeWidth=1;rounded=1;absoluteArcSize=1;arcSize=2;fontSize=10;fontColor=#9E9E9E;align=center;html=1;container=0;" vertex="1" parent="x3nWLXFqhXbbvrtJv1Lh-13">
          <mxGeometry width="160" height="60" as="geometry" />
        </mxCell>
        <mxCell id="x3nWLXFqhXbbvrtJv1Lh-15" value="DB" style="outlineConnect=0;dashed=0;verticalLabelPosition=middle;verticalAlign=top;align=left;html=1;shape=mxgraph.aws3.rds;fillColor=#2E73B8;gradientColor=none;labelPosition=right;spacingLeft=5;" vertex="1" parent="x3nWLXFqhXbbvrtJv1Lh-13">
          <mxGeometry x="17" y="15" width="26.67" height="30" as="geometry" />
        </mxCell>
        <mxCell id="x3nWLXFqhXbbvrtJv1Lh-16" value="&lt;b&gt;現行基幹システム&lt;/b&gt;" style="fillColor=#F6F6F6;strokeColor=none;shadow=0;gradientColor=none;fontSize=14;align=left;spacing=10;fontColor=#717171;9E9E9E;verticalAlign=top;spacingTop=-4;fontStyle=0;spacingLeft=0;html=1;" vertex="1" parent="1">
          <mxGeometry x="230" y="440" width="490" height="150" as="geometry" />
        </mxCell>
        <mxCell id="x3nWLXFqhXbbvrtJv1Lh-17" value="" style="group" vertex="1" connectable="0" parent="1">
          <mxGeometry x="519" y="490" width="135" height="60" as="geometry" />
        </mxCell>
        <mxCell id="x3nWLXFqhXbbvrtJv1Lh-18" value="" style="strokeColor=#dddddd;fillColor=#ffffff;shadow=1;strokeWidth=1;rounded=1;absoluteArcSize=1;arcSize=2;fontSize=10;fontColor=#9E9E9E;align=center;html=1;container=0;" vertex="1" parent="x3nWLXFqhXbbvrtJv1Lh-17">
          <mxGeometry width="135" height="60" as="geometry" />
        </mxCell>
        <mxCell id="x3nWLXFqhXbbvrtJv1Lh-19" value="中間DB" style="outlineConnect=0;dashed=0;verticalLabelPosition=middle;verticalAlign=middle;align=left;html=1;shape=mxgraph.aws3.oracle_db_instance_2;fillColor=#2E73B8;gradientColor=none;labelPosition=right;spacingLeft=5;" vertex="1" parent="x3nWLXFqhXbbvrtJv1Lh-17">
          <mxGeometry x="12.65625" y="14.25" width="25.3125" height="31.5" as="geometry" />
        </mxCell>
        <mxCell id="x3nWLXFqhXbbvrtJv1Lh-20" value="" style="group" vertex="1" connectable="0" parent="1">
          <mxGeometry x="279" y="490" width="135" height="60" as="geometry" />
        </mxCell>
        <mxCell id="x3nWLXFqhXbbvrtJv1Lh-21" value="" style="strokeColor=#dddddd;fillColor=#ffffff;shadow=1;strokeWidth=1;rounded=1;absoluteArcSize=1;arcSize=2;fontSize=10;fontColor=#9E9E9E;align=center;html=1;container=0;" vertex="1" parent="x3nWLXFqhXbbvrtJv1Lh-20">
          <mxGeometry width="135" height="60" as="geometry" />
        </mxCell>
        <mxCell id="x3nWLXFqhXbbvrtJv1Lh-22" value="本体DB" style="outlineConnect=0;dashed=0;verticalLabelPosition=middle;verticalAlign=middle;align=left;html=1;shape=mxgraph.aws3.oracle_db_instance_2;fillColor=#2E73B8;gradientColor=none;labelPosition=right;spacingLeft=5;" vertex="1" parent="x3nWLXFqhXbbvrtJv1Lh-20">
          <mxGeometry x="12.65625" y="14.25" width="25.3125" height="31.5" as="geometry" />
        </mxCell>
        <mxCell id="x3nWLXFqhXbbvrtJv1Lh-23" value="" style="edgeStyle=orthogonalEdgeStyle;rounded=0;orthogonalLoop=1;jettySize=auto;html=1;labelBackgroundColor=none;endArrow=blockThin;fontSize=12;strokeColor=#4284F3;fontColor=#000000;startFill=1;startSize=4;endFill=1;endSize=4;strokeWidth=2;dashed=0;exitX=1;exitY=0.5;exitDx=0;exitDy=0;entryX=0.5;entryY=1;entryDx=0;entryDy=0;" edge="1" parent="1" source="x3nWLXFqhXbbvrtJv1Lh-7" target="x3nWLXFqhXbbvrtJv1Lh-14">
          <mxGeometry relative="1" as="geometry">
            <mxPoint x="423.4999999999999" y="329.83" as="sourcePoint" />
            <mxPoint x="530" y="330" as="targetPoint" />
          </mxGeometry>
        </mxCell>
        <mxCell id="x3nWLXFqhXbbvrtJv1Lh-24" style="edgeStyle=orthogonalEdgeStyle;rounded=0;html=1;labelBackgroundColor=none;startFill=1;startSize=4;endArrow=blockThin;endFill=1;endSize=4;jettySize=auto;orthogonalLoop=1;strokeColor=#00CC00;strokeWidth=2;fontSize=12;fontColor=#000000;align=center;dashed=0;exitX=0.5;exitY=1;exitDx=0;exitDy=0;entryX=0.5;entryY=0;entryDx=0;entryDy=0;" edge="1" parent="1" source="x3nWLXFqhXbbvrtJv1Lh-10" target="x3nWLXFqhXbbvrtJv1Lh-18">
          <mxGeometry relative="1" as="geometry">
            <mxPoint x="740.6521739130437" y="256.5" as="sourcePoint" />
            <mxPoint x="790" y="260" as="targetPoint" />
          </mxGeometry>
        </mxCell>
        <mxCell id="x3nWLXFqhXbbvrtJv1Lh-25" style="edgeStyle=orthogonalEdgeStyle;rounded=0;html=1;labelBackgroundColor=none;startFill=1;startSize=4;endArrow=blockThin;endFill=1;endSize=4;jettySize=auto;orthogonalLoop=1;strokeColor=#FFB570;strokeWidth=2;fontSize=12;fontColor=#000000;align=center;dashed=0;exitX=0;exitY=0.5;exitDx=0;exitDy=0;entryX=1;entryY=0.5;entryDx=0;entryDy=0;" edge="1" parent="1" source="x3nWLXFqhXbbvrtJv1Lh-18" target="x3nWLXFqhXbbvrtJv1Lh-21">
          <mxGeometry relative="1" as="geometry">
            <mxPoint x="326.21000000000004" y="610" as="sourcePoint" />
            <mxPoint x="326.21000000000004" y="643.5" as="targetPoint" />
          </mxGeometry>
        </mxCell>
        <mxCell id="x3nWLXFqhXbbvrtJv1Lh-26" value="Users" style="rounded=1;absoluteArcSize=1;arcSize=2;html=1;strokeColor=none;gradientColor=none;shadow=0;dashed=0;strokeColor=none;fontSize=12;fontColor=#9E9E9E;align=left;verticalAlign=top;spacing=10;spacingTop=-4;fillColor=#F1F8E9;" vertex="1" parent="1">
          <mxGeometry x="70" y="354" width="90" height="120" as="geometry" />
        </mxCell>
        <mxCell id="x3nWLXFqhXbbvrtJv1Lh-27" style="edgeStyle=orthogonalEdgeStyle;rounded=0;html=1;labelBackgroundColor=none;startFill=1;startSize=4;endArrow=blockThin;endFill=1;endSize=4;jettySize=auto;orthogonalLoop=1;strokeColor=#9E9E9E;strokeWidth=2;fontSize=12;fontColor=#000000;align=center;dashed=0;entryX=0;entryY=0.5;entryDx=0;entryDy=0;" edge="1" parent="1" source="x3nWLXFqhXbbvrtJv1Lh-28" target="x3nWLXFqhXbbvrtJv1Lh-16">
          <mxGeometry relative="1" as="geometry">
            <mxPoint x="930.0200000000002" y="735.0000000000002" as="targetPoint" />
          </mxGeometry>
        </mxCell>
        <mxCell id="x3nWLXFqhXbbvrtJv1Lh-28" value="" style="strokeColor=#dddddd;fillColor=#ffffff;shadow=1;strokeWidth=1;rounded=1;absoluteArcSize=1;arcSize=2;labelPosition=center;verticalLabelPosition=middle;align=center;verticalAlign=bottom;spacingLeft=0;fontColor=#999999;fontSize=12;whiteSpace=wrap;spacingBottom=2;html=1;" vertex="1" parent="1">
          <mxGeometry x="80" y="384" width="70" height="69" as="geometry" />
        </mxCell>
        <mxCell id="x3nWLXFqhXbbvrtJv1Lh-29" value="" style="dashed=0;connectable=0;html=1;fillColor=#757575;strokeColor=none;shape=mxgraph.gcp2.laptop;part=1;" vertex="1" parent="x3nWLXFqhXbbvrtJv1Lh-28">
          <mxGeometry x="0.5" width="50" height="33" relative="1" as="geometry">
            <mxPoint x="-25" y="18.5" as="offset" />
          </mxGeometry>
        </mxCell>
        <mxCell id="x3nWLXFqhXbbvrtJv1Lh-30" style="edgeStyle=orthogonalEdgeStyle;rounded=0;html=1;labelBackgroundColor=none;startFill=1;startSize=4;endArrow=blockThin;endFill=1;endSize=4;jettySize=auto;orthogonalLoop=1;strokeColor=#9E9E9E;strokeWidth=2;fontSize=12;fontColor=#000000;align=center;dashed=0;exitX=1;exitY=0.5;exitDx=0;exitDy=0;entryX=0;entryY=0.5;entryDx=0;entryDy=0;" edge="1" parent="1" source="x3nWLXFqhXbbvrtJv1Lh-28" target="x3nWLXFqhXbbvrtJv1Lh-4">
          <mxGeometry relative="1" as="geometry">
            <mxPoint x="190" y="230" as="targetPoint" />
            <mxPoint x="600" y="569.4666666666665" as="sourcePoint" />
            <Array as="points">
              <mxPoint x="190" y="418" />
              <mxPoint x="190" y="270" />
            </Array>
          </mxGeometry>
        </mxCell>
        <mxCell id="x3nWLXFqhXbbvrtJv1Lh-31" value="Batch" style="outlineConnect=0;dashed=0;verticalLabelPosition=bottom;verticalAlign=top;align=center;html=1;shape=mxgraph.aws3.batch;fillColor=#F58534;gradientColor=none;" vertex="1" parent="1">
          <mxGeometry x="457" y="503.87" width="23.25" height="28.26" as="geometry" />
        </mxCell>
        <mxCell id="x3nWLXFqhXbbvrtJv1Lh-32" style="edgeStyle=orthogonalEdgeStyle;rounded=0;html=1;labelBackgroundColor=none;startFill=1;startSize=4;endArrow=blockThin;endFill=1;endSize=4;jettySize=auto;orthogonalLoop=1;strokeColor=#4284F3;strokeWidth=2;fontSize=12;fontColor=#000000;align=center;dashed=0;exitX=1;exitY=0.5;exitDx=0;exitDy=0;entryX=0;entryY=0.5;entryDx=0;entryDy=0;" edge="1" parent="1" source="x3nWLXFqhXbbvrtJv1Lh-4" target="x3nWLXFqhXbbvrtJv1Lh-10">
          <mxGeometry relative="1" as="geometry">
            <mxPoint x="420" y="280" as="sourcePoint" />
            <mxPoint x="456" y="280" as="targetPoint" />
            <Array as="points">
              <mxPoint x="420" y="270" />
              <mxPoint x="420" y="350" />
            </Array>
          </mxGeometry>
        </mxCell>
        <mxCell id="x3nWLXFqhXbbvrtJv1Lh-33" style="edgeStyle=orthogonalEdgeStyle;rounded=0;html=1;labelBackgroundColor=none;startFill=1;startSize=4;endArrow=blockThin;endFill=1;endSize=4;jettySize=auto;orthogonalLoop=1;strokeColor=#4284F3;strokeWidth=2;fontSize=12;fontColor=#000000;align=center;dashed=0;exitX=1;exitY=0.5;exitDx=0;exitDy=0;entryX=0;entryY=0.5;entryDx=0;entryDy=0;" edge="1" parent="1" source="x3nWLXFqhXbbvrtJv1Lh-4" target="x3nWLXFqhXbbvrtJv1Lh-14">
          <mxGeometry relative="1" as="geometry">
            <mxPoint x="511.313432835821" y="419.97507462686565" as="sourcePoint" />
            <mxPoint x="475.3134328358209" y="339.97507462686565" as="targetPoint" />
            <Array as="points">
              <mxPoint x="420" y="270" />
              <mxPoint x="420" y="170" />
            </Array>
          </mxGeometry>
        </mxCell>
      </root>
    </mxGraphModel>
  </diagram>
</mxfile>
